<?xml version="1.0" standalone="no"?>
<svg xmlns:xlink="http://www.w3.org/1999/xlink" id="wave" style="transform:rotate(180deg); transition: 0.3s" viewBox="0 0 1440 360" version="1.1" xmlns="http://www.w3.org/2000/svg"><defs><linearGradient id="sw-gradient-0" x1="0" x2="0" y1="1" y2="0"><stop stop-color="rgba(0, 0, 0, 1)" offset="0%"/><stop stop-color="rgba(0, 0, 0, 1)" offset="100%"/></linearGradient></defs><path style="transform:translate(0, 0px); opacity:1" fill="url(#sw-gradient-0)" d="M0,216L1440,72L2880,180L4320,252L5760,108L7200,324L8640,72L10080,72L11520,0L12960,288L14400,288L15840,72L17280,288L18720,72L20160,144L21600,108L23040,144L24480,216L25920,288L27360,288L28800,108L30240,216L31680,0L33120,36L34560,108L34560,360L33120,360L31680,360L30240,360L28800,360L27360,360L25920,360L24480,360L23040,360L21600,360L20160,360L18720,360L17280,360L15840,360L14400,360L12960,360L11520,360L10080,360L8640,360L7200,360L5760,360L4320,360L2880,360L1440,360L0,360Z"/></svg>